<svg xmlns="http://www.w3.org/2000/svg" xmlns:xlink="http://www.w3.org/1999/xlink" width="1366" zoomAndPan="magnify" viewBox="0 0 1024.5 576" height="768" preserveAspectRatio="xMidYMid meet" version="1.0"><defs><clipPath id="b1e2643d98"><path d="M 182.433594 236 L 265 236 L 265 402 L 182.433594 402 Z M 182.433594 236 " clip-rule="nonzero"/></clipPath><clipPath id="c38b076321"><path d="M 758 236 L 841.363281 236 L 841.363281 402 L 758 402 Z M 758 236 " clip-rule="nonzero"/></clipPath><clipPath id="fe26cf61ed"><path d="M 481 20.226562 L 543 20.226562 L 543 82 L 481 82 Z M 481 20.226562 " clip-rule="nonzero"/></clipPath><clipPath id="093a3e4d2f"><path d="M 470 473 L 574 473 L 574 555.46875 L 470 555.46875 Z M 470 473 " clip-rule="nonzero"/></clipPath></defs><path fill="#111111" d="M 604.5625 318.726562 C 593.191406 318.726562 583.96875 309.507812 583.96875 298.140625 C 583.96875 286.773438 593.191406 277.554688 604.5625 277.554688 C 615.929688 277.554688 625.152344 286.773438 625.152344 298.140625 C 625.152344 309.507812 615.929688 318.726562 604.5625 318.726562 Z M 511.898438 385.519531 C 483.464844 385.519531 460.421875 367.085938 460.421875 344.347656 L 563.378906 344.347656 C 563.378906 367.085938 540.332031 385.519531 511.898438 385.519531 Z M 419.238281 318.726562 C 407.867188 318.726562 398.644531 309.507812 398.644531 298.140625 C 398.644531 286.773438 407.867188 277.554688 419.238281 277.554688 C 430.609375 277.554688 439.828125 286.773438 439.828125 298.140625 C 439.828125 309.507812 430.609375 318.726562 419.238281 318.726562 Z M 594.265625 195.210938 L 429.53125 195.210938 C 395.417969 195.210938 364.53125 209.035156 342.171875 231.390625 C 319.8125 253.742188 305.984375 284.621094 305.984375 318.726562 C 305.984375 386.945312 361.296875 442.242188 429.53125 442.242188 L 594.265625 442.242188 C 628.382812 442.242188 659.269531 428.417969 681.625 406.066406 C 703.984375 383.710938 717.8125 352.832031 717.8125 318.726562 C 717.8125 250.507812 662.5 195.210938 594.265625 195.210938 " fill-opacity="1" fill-rule="nonzero"/><path fill="#111111" d="M 511.898438 524.585938 L 450.125 524.585938 C 422.332031 524.585938 395.363281 519.144531 369.96875 508.40625 C 345.449219 498.035156 323.425781 483.191406 304.519531 464.289062 C 285.613281 445.386719 270.769531 423.375 260.394531 398.859375 C 249.65625 373.472656 244.210938 346.511719 244.210938 318.726562 C 244.210938 290.941406 249.65625 263.980469 260.394531 238.59375 C 270.769531 214.078125 285.613281 192.0625 304.519531 173.160156 C 323.425781 154.257812 345.449219 139.417969 369.96875 129.046875 C 395.363281 118.308594 422.332031 112.867188 450.125 112.867188 L 573.671875 112.867188 C 601.46875 112.867188 628.433594 118.308594 653.828125 129.046875 C 678.347656 139.417969 700.371094 154.257812 719.277344 173.160156 C 738.183594 192.0625 753.03125 214.078125 763.402344 238.59375 C 774.144531 263.980469 779.589844 290.941406 779.589844 318.726562 L 758.996094 318.726562 C 758.996094 216.566406 675.859375 133.453125 573.671875 133.453125 L 450.125 133.453125 C 347.9375 133.453125 264.800781 216.566406 264.800781 318.726562 C 264.800781 420.886719 347.9375 504 450.125 504 L 511.898438 504 L 511.898438 524.585938 " fill-opacity="1" fill-rule="nonzero"/><g clip-path="url(#b1e2643d98)"><path fill="#111111" d="M 264.800781 401.070312 C 219.3125 401.070312 182.433594 364.203125 182.433594 318.726562 C 182.433594 273.25 219.3125 236.382812 264.800781 236.382812 L 264.800781 401.070312 " fill-opacity="1" fill-rule="nonzero"/></g><g clip-path="url(#c38b076321)"><path fill="#111111" d="M 758.996094 401.070312 C 804.488281 401.070312 841.363281 364.203125 841.363281 318.726562 C 841.363281 273.25 804.488281 236.382812 758.996094 236.382812 L 758.996094 401.070312 " fill-opacity="1" fill-rule="nonzero"/></g><path fill="#111111" d="M 563.378906 205.503906 C 563.378906 228.242188 540.328125 246.675781 511.898438 246.675781 C 483.46875 246.675781 460.421875 228.242188 460.421875 205.503906 C 460.421875 182.765625 483.46875 164.332031 511.898438 164.332031 C 540.328125 164.332031 563.378906 182.765625 563.378906 205.503906 " fill-opacity="1" fill-rule="nonzero"/><g clip-path="url(#fe26cf61ed)"><path fill="#111111" d="M 542.785156 51.109375 C 542.785156 68.164062 528.957031 81.988281 511.898438 81.988281 C 494.839844 81.988281 481.011719 68.164062 481.011719 51.109375 C 481.011719 34.054688 494.839844 20.230469 511.898438 20.230469 C 528.957031 20.230469 542.785156 34.054688 542.785156 51.109375 " fill-opacity="1" fill-rule="nonzero"/></g><g clip-path="url(#093a3e4d2f)"><path fill="#111111" d="M 573.671875 514.292969 C 573.671875 537.035156 550.625 555.464844 522.195312 555.464844 C 493.765625 555.464844 470.714844 537.035156 470.714844 514.292969 C 470.714844 491.554688 493.765625 473.121094 522.195312 473.121094 C 550.625 473.121094 573.671875 491.554688 573.671875 514.292969 " fill-opacity="1" fill-rule="nonzero"/></g><path fill="#111111" d="M 522.195312 236.820312 L 501.601562 236.820312 L 501.601562 51.109375 L 522.195312 51.109375 L 522.195312 236.820312 " fill-opacity="1" fill-rule="nonzero"/></svg>