<svg xmlns="http://www.w3.org/2000/svg" xmlns:xlink="http://www.w3.org/1999/xlink" width="1280" zoomAndPan="magnify" viewBox="0 0 960 599.999999" height="800" preserveAspectRatio="xMidYMid meet" version="1.0"><defs><clipPath id="3cb702149e"><path d="M 232.867188 40.203125 L 727.117188 40.203125 L 727.117188 559.953125 L 232.867188 559.953125 Z M 232.867188 40.203125 " clip-rule="nonzero"/></clipPath></defs><path fill="#000000" d="M 480.007812 168.84375 C 425.410156 168.84375 381.148438 215.347656 381.148438 272.707031 C 381.148438 330.078125 425.410156 376.578125 480.007812 376.578125 C 534.605469 376.578125 578.859375 330.078125 578.859375 272.707031 C 578.859375 215.347656 534.605469 168.84375 480.007812 168.84375 " fill-opacity="1" fill-rule="nonzero"/><g clip-path="url(#3cb702149e)"><path fill="#000000" d="M 644.1875 479.339844 C 622.292969 425.878906 576.332031 392.441406 479.855469 392.441406 C 383.507812 392.441406 337.546875 425.792969 315.617188 479.132812 C 270.992188 433.882812 243.230469 370.386719 243.230469 300.078125 C 243.230469 162.675781 349.238281 51.292969 480.007812 51.292969 C 610.777344 51.292969 716.785156 162.675781 716.785156 300.078125 C 716.785156 370.5 688.9375 434.082031 644.1875 479.339844 Z M 480.007812 40.40625 C 343.515625 40.40625 232.867188 156.664062 232.867188 300.078125 C 232.867188 375.085938 263.136719 442.667969 311.546875 490.074219 C 355.683594 533.300781 414.902344 559.746094 480.007812 559.746094 C 544.996094 559.746094 604.128906 533.386719 648.25 490.289062 C 696.78125 442.878906 727.148438 375.203125 727.148438 300.078125 C 727.148438 156.664062 616.496094 40.40625 480.007812 40.40625 " fill-opacity="1" fill-rule="nonzero"/></g></svg>